<?xml version="1.0" standalone="no"?><!DOCTYPE svg PUBLIC "-//W3C//DTD SVG 1.1//EN" "http://www.w3.org/Graphics/SVG/1.1/DTD/svg11.dtd"><svg t="1698919034121" class="icon" viewBox="0 0 1024 1024" version="1.1" xmlns="http://www.w3.org/2000/svg" p-id="3247" xmlns:xlink="http://www.w3.org/1999/xlink" width="200" height="200"><path d="M485.12425 4.580329L156.445199 96.995211A122.106194 122.106194 0 0 0 67.398207 214.494133v354.490554c0 85.975478 35.29548 168.205862 97.587959 227.45377l17.863285 16.812503 8.783455 8.190707 17.270537 15.842551 16.893332 15.22286 16.516129 14.549282 16.165869 13.92959 15.788665 13.282955a1228.067147 1228.067147 0 0 0 59.544282 46.611588l14.01042 10.022838C416.985114 999.508709 473.107621 1023.838341 518.183451 1023.838341c45.048887 0 101.198337-24.329632 170.361311-72.908067l14.01042-10.022838c20.315108-14.926485 40.14524-30.472662 59.544282-46.611588l15.761722-13.282955 16.165869-13.92959 16.516129-14.549282 16.893332-15.22286 17.270537-15.842551 17.674683-16.516129 8.972057-8.487081a313.860338 313.860338 0 0 0 97.587959-227.45377V214.521076c0-54.694522-36.373204-102.734095-89.046992-117.552808L551.215709 4.580329a122.106194 122.106194 0 0 0-66.091459 0V4.580329z m44.483082 76.895648l328.67905 92.414882c18.186602 5.119192 30.769036 21.71615 30.769037 40.630217v354.490554c0 64.124612-26.29648 125.393254-72.746409 169.579961l-16.435299 15.465347-16.08504 14.899543-15.707835 14.27985-15.330632 13.714045-14.926486 13.040468-7.328527 6.304688-14.387623 12.178288-7.032152 5.819713-13.794875 11.262221-13.390728 10.64253c-2.182392 1.697416-4.364785 3.421776-6.547177 5.065306l-12.771036 9.699521c-2.101563 1.616587-4.176183 3.152344-6.250802 4.661159l-12.178288 8.810398-5.927485 4.176183-11.585539 7.894332-5.631111 3.71815-10.965847 7.00521c-39.336947 24.464348-70.240699 36.723465-91.87602 36.723465-21.581435 0-52.485187-12.259117-91.849076-36.750408l-10.965848-6.978267-5.631111-3.71815-11.531653-7.894332-11.989686-8.487081-6.169973-4.4995-12.555491-9.43009a1048.410462 1048.410462 0 0 1-13.013524-10.022839l-13.390728-10.615587-13.794874-11.262221-14.145135-11.854971-7.274641-6.14303-14.710941-12.744093-15.14203-13.390728-15.519234-14.010419-15.896437-14.549282-16.273641-15.222859-8.244593-7.813503a233.920118 233.920118 0 0 1-72.773352-169.553018V214.521076c0-18.914066 12.609377-35.511025 30.822923-40.630217l328.652108-92.414882c7.463243-2.128506 15.357575-2.128506 22.820817 0h0.026944z" fill="#1296db" p-id="3248"></path><path d="M632.28754 339.186865a39.956638 39.956638 0 0 1 3.28706 79.751618l-3.28706 0.134716h-228.208178a39.956638 39.956638 0 0 1-3.314003-79.751618l3.28706-0.134716h228.235121z" fill="#1296db" p-id="3249"></path><path d="M518.183451 362.007683c20.773141 0 38.097564 15.950324 39.79498 36.642635l0.134715 3.28706v228.262064a39.956638 39.956638 0 0 1-79.751618 3.28706l-0.134715-3.28706v-228.262064c0-22.039467 17.890228-39.929695 39.956638-39.929695z" fill="#1296db" p-id="3250"></path></svg>